<svg xmlns="http://www.w3.org/2000/svg" xmlns:xlink="http://www.w3.org/1999/xlink" width="451" zoomAndPan="magnify" viewBox="0 0 338.25 105.749996" height="141" preserveAspectRatio="xMidYMid meet" version="1.0"><defs><g/></defs><g fill="#3f60a0" fill-opacity="1"><g transform="translate(174.445439, 70.411069)"><g><path d="M 32.878906 -39.257812 L 5.054688 -39.257812 C 3.191406 -39.257812 1.621094 -37.734375 1.621094 -35.820312 L 1.621094 -29.097656 C 1.621094 -27.234375 3.191406 -25.664062 5.054688 -25.664062 L 11.824219 -25.664062 C 12.023438 -25.664062 12.167969 -25.46875 12.167969 -25.320312 L 12.167969 -3.335938 C 12.167969 -1.472656 13.691406 0.0976562 15.652344 0.0976562 L 22.328125 0.0976562 C 24.191406 0.0976562 25.761719 -1.472656 25.761719 -3.335938 L 25.761719 -25.320312 C 25.761719 -25.46875 25.957031 -25.664062 26.15625 -25.664062 L 32.878906 -25.664062 C 34.742188 -25.664062 36.3125 -27.234375 36.3125 -29.097656 L 36.3125 -35.820312 C 36.3125 -37.734375 34.742188 -39.257812 32.878906 -39.257812 Z M 32.878906 -39.257812 "/></g></g></g><g fill="#3f60a0" fill-opacity="1"><g transform="translate(212.374522, 70.411069)"><g><path d="M 29.882812 -39.160156 L 22.132812 -39.160156 C 20.5625 -39.160156 19.285156 -37.785156 19.285156 -36.214844 L 19.285156 -13.9375 C 19.285156 -12.757812 18.304688 -11.824219 17.125 -11.824219 C 15.996094 -11.824219 15.015625 -12.757812 15.015625 -13.9375 L 15.015625 -37.34375 C 15.015625 -38.324219 14.230469 -39.109375 13.296875 -39.109375 L 2.550781 -39.109375 C 1.621094 -39.109375 0.835938 -38.324219 0.835938 -37.34375 L 0.835938 -14.035156 C 0.835938 -5.789062 8.539062 0.933594 16.78125 0.933594 C 24.878906 0.933594 32.4375 -5.398438 32.78125 -13.394531 L 32.78125 -36.214844 C 32.78125 -37.785156 31.453125 -39.160156 29.882812 -39.160156 Z M 29.882812 -39.160156 "/></g></g></g><g fill="#3f60a0" fill-opacity="1"><g transform="translate(245.985669, 70.411069)"><g><path d="M 30.277344 -39.207031 L 24.09375 -39.207031 C 22.179688 -39.207031 20.511719 -37.636719 20.511719 -35.675781 L 20.511719 -24.144531 L 14.769531 -36.902344 C 14.230469 -38.277344 12.90625 -39.207031 11.382812 -39.207031 L 5.203125 -39.207031 C 3.238281 -39.207031 1.621094 -37.636719 1.621094 -35.675781 L 1.621094 -2.894531 C 1.621094 -0.933594 3.238281 0.636719 5.203125 0.636719 L 11.382812 0.636719 C 13.394531 0.636719 14.964844 -0.933594 14.964844 -2.894531 L 14.964844 -13.9375 L 20.707031 -1.765625 C 21.296875 -0.390625 22.523438 0.636719 24.09375 0.636719 L 30.277344 0.636719 C 32.289062 0.636719 33.859375 -0.933594 33.859375 -2.894531 L 33.859375 -35.675781 C 33.859375 -37.636719 32.289062 -39.207031 30.277344 -39.207031 Z M 30.277344 -39.207031 "/></g></g></g><g fill="#3f60a0" fill-opacity="1"><g transform="translate(281.461388, 70.411069)"><g><path d="M 15.308594 -28.609375 L 25.273438 -28.609375 C 26.695312 -28.609375 27.871094 -29.785156 27.871094 -31.160156 L 27.871094 -36.65625 C 27.871094 -38.078125 26.695312 -39.207031 25.273438 -39.207031 L 5.203125 -39.207031 C 3.191406 -39.207031 1.621094 -37.636719 1.621094 -36.507812 L 1.621094 -4.5625 C 1.621094 -1.667969 3.191406 -0.0976562 5.203125 -0.0976562 L 25.273438 -0.0976562 C 26.695312 -0.0976562 27.871094 -1.226562 27.871094 -2.648438 L 27.871094 -8.144531 C 27.871094 -9.570312 26.695312 -10.796875 25.273438 -10.796875 L 15.308594 -10.796875 C 15.113281 -10.796875 14.964844 -10.941406 14.964844 -11.140625 L 14.964844 -14.28125 C 14.964844 -14.476562 15.113281 -14.625 15.308594 -14.625 L 22.523438 -14.625 C 23.800781 -14.625 24.878906 -15.652344 24.878906 -16.980469 L 24.878906 -22.328125 C 24.878906 -23.601562 23.800781 -24.683594 22.523438 -24.683594 L 15.308594 -24.683594 C 15.113281 -24.683594 14.964844 -24.828125 14.964844 -24.976562 L 14.964844 -28.214844 C 14.964844 -28.363281 15.113281 -28.609375 15.308594 -28.609375 Z M 15.308594 -28.609375 "/></g></g></g><path stroke-linecap="butt" transform="matrix(0.256059, 0, 0, 0.256059, 174.560366, 30.008126)" fill="none" stroke-linejoin="miter" d="M 134.529222 -0.321584 L 25.881256 -0.321584 C 18.589241 -0.321584 12.456626 5.627968 12.456626 13.103046 L 12.456626 39.357349 C 12.456626 46.649364 18.589241 52.781979 25.881256 52.781979 L 52.318622 52.781979 C 53.111896 52.781979 53.67634 53.529486 53.67634 54.093931 L 53.67634 139.950538 C 53.67634 147.242552 59.625892 153.375167 67.284033 153.375167 L 93.355273 153.375167 C 100.601522 153.375167 106.734137 147.242552 106.734137 139.950538 L 106.734137 54.093931 C 106.734137 53.529486 107.527411 52.781979 108.274918 52.781979 L 134.529222 52.781979 C 141.821236 52.781979 147.953851 46.649364 147.953851 39.357349 L 147.953851 13.103046 C 147.953851 5.627968 141.821236 -0.321584 134.529222 -0.321584 Z M 270.957018 0.0597978 L 240.675325 0.0597978 C 234.557966 0.0597978 229.600006 5.42965 229.600006 11.562264 L 229.600006 98.593526 C 229.600006 103.170104 225.755681 106.816112 221.179102 106.816112 C 216.724566 106.816112 212.895496 103.170104 212.895496 98.593526 L 212.895496 7.168749 C 212.895496 3.324424 209.844444 0.242861 206.198436 0.242861 L 164.231214 0.242861 C 160.585207 0.242861 157.54941 3.324424 157.54941 7.168749 L 157.54941 98.212145 C 157.54941 130.400745 187.632784 156.655048 219.821384 156.655048 C 251.445539 156.655048 280.918703 131.89576 282.276421 100.698752 L 282.276421 11.562264 C 282.276421 5.42965 277.135398 0.0597978 270.957018 0.0597978 Z M 403.754062 -0.138521 L 379.620239 -0.138521 C 372.129906 -0.138521 365.631165 5.994094 365.631165 13.66749 L 365.631165 58.73153 L 343.221187 8.892594 C 341.115962 3.522742 335.913918 -0.138521 329.979621 -0.138521 L 305.830544 -0.138521 C 298.157148 -0.138521 291.84147 5.994094 291.84147 13.66749 L 291.84147 141.674382 C 291.84147 149.347778 298.157148 155.480393 305.830544 155.480393 L 329.979621 155.480393 C 337.83608 155.480393 343.968695 149.347778 343.968695 141.674382 L 343.968695 98.593526 L 366.424439 146.128918 C 368.712728 151.453004 373.487625 155.480393 379.620239 155.480393 L 403.754062 155.480393 C 411.625776 155.480393 417.743136 149.347778 417.743136 141.674382 L 417.743136 13.66749 C 417.743136 5.994094 411.625776 -0.138521 403.754062 -0.138521 Z M 483.874691 41.279512 L 522.745095 41.279512 C 528.313265 41.279512 532.950864 36.687679 532.950864 31.302572 L 532.950864 9.83842 C 532.950864 4.316015 528.313265 -0.138521 522.745095 -0.138521 L 444.378821 -0.138521 C 436.522362 -0.138521 430.389747 5.994094 430.389747 10.433375 L 430.389747 135.175641 C 430.389747 146.495045 436.522362 152.627659 444.378821 152.627659 L 522.745095 152.627659 C 528.313265 152.627659 532.950864 148.234144 532.950864 142.665974 L 532.950864 121.186567 C 532.950864 115.618397 528.313265 110.843501 522.745095 110.843501 L 483.874691 110.843501 C 483.127183 110.843501 482.516972 110.279056 482.516972 109.485782 L 482.516972 97.235808 C 482.516972 96.4883 483.127183 95.87809 483.874691 95.87809 L 512.035902 95.87809 C 517.039627 95.87809 521.250079 91.850701 521.250079 86.709678 L 521.250079 65.794716 C 521.250079 60.836756 517.039627 56.611049 512.035902 56.611049 L 483.874691 56.611049 C 483.127183 56.611049 482.516972 56.016094 482.516972 55.451649 L 482.516972 42.820293 C 482.516972 42.255849 483.127183 41.279512 483.874691 41.279512 Z M 483.874691 41.279512 " stroke="#21407b" stroke-width="3.114264" stroke-opacity="1" stroke-miterlimit="4"/><g fill="#76b0cd" fill-opacity="1"><g transform="translate(23.412123, 70.411069)"><g><path d="M 32.878906 -39.257812 L 5.054688 -39.257812 C 3.191406 -39.257812 1.621094 -37.734375 1.621094 -35.820312 L 1.621094 -29.097656 C 1.621094 -27.234375 3.191406 -25.664062 5.054688 -25.664062 L 11.824219 -25.664062 C 12.023438 -25.664062 12.167969 -25.46875 12.167969 -25.320312 L 12.167969 -3.335938 C 12.167969 -1.472656 13.691406 0.0976562 15.652344 0.0976562 L 22.328125 0.0976562 C 24.191406 0.0976562 25.761719 -1.472656 25.761719 -3.335938 L 25.761719 -25.320312 C 25.761719 -25.46875 25.957031 -25.664062 26.15625 -25.664062 L 32.878906 -25.664062 C 34.742188 -25.664062 36.3125 -27.234375 36.3125 -29.097656 L 36.3125 -35.820312 C 36.3125 -37.734375 34.742188 -39.257812 32.878906 -39.257812 Z M 32.878906 -39.257812 "/></g></g></g><g fill="#76b0cd" fill-opacity="1"><g transform="translate(61.341206, 70.411069)"><g><path d="M 16.832031 -39.847656 C 8.785156 -39.847656 0.835938 -33.367188 0.835938 -25.273438 L 0.835938 -14.082031 C 0.835938 -5.691406 8.785156 0.835938 16.832031 0.835938 C 25.074219 0.835938 32.828125 -5.691406 32.828125 -14.082031 L 32.828125 -25.273438 C 32.828125 -33.367188 25.074219 -39.847656 16.832031 -39.847656 Z M 20.121094 -14.574219 C 20.121094 -12.90625 18.597656 -11.433594 16.832031 -11.433594 C 15.015625 -11.433594 13.59375 -12.90625 13.59375 -14.574219 L 13.59375 -24.386719 C 13.59375 -26.15625 15.015625 -27.628906 16.832031 -27.628906 C 18.597656 -27.628906 20.121094 -26.15625 20.121094 -24.386719 Z M 20.121094 -14.574219 "/></g></g></g><g fill="#76b0cd" fill-opacity="1"><g transform="translate(95.001427, 70.411069)"><g><path d="M 18.351562 -39.207031 L 5.152344 -39.207031 C 3.089844 -39.207031 1.621094 -37.492188 1.621094 -35.675781 L 1.621094 -3.730469 C 1.621094 -1.960938 3.089844 -0.148438 5.152344 -0.148438 L 18.351562 -0.148438 C 26.058594 -0.148438 31.945312 -6.378906 31.945312 -13.789062 L 31.945312 -25.613281 C 31.945312 -33.023438 26.058594 -39.207031 18.351562 -39.207031 Z M 19.972656 -18.5 C 19.972656 -16.4375 18.449219 -15.015625 16.4375 -15.015625 L 14.082031 -15.015625 C 13.738281 -15.015625 13.394531 -15.261719 13.394531 -15.851562 L 13.394531 -23.503906 C 13.394531 -24.144531 13.738281 -24.4375 14.082031 -24.4375 L 16.4375 -24.4375 C 18.449219 -24.4375 19.972656 -22.964844 19.972656 -20.855469 Z M 19.972656 -18.5 "/></g></g></g><g fill="#76b0cd" fill-opacity="1"><g transform="translate(128.170972, 70.411069)"><g><path d="M 16.832031 -39.847656 C 8.785156 -39.847656 0.835938 -33.367188 0.835938 -25.273438 L 0.835938 -14.082031 C 0.835938 -5.691406 8.785156 0.835938 16.832031 0.835938 C 25.074219 0.835938 32.828125 -5.691406 32.828125 -14.082031 L 32.828125 -25.273438 C 32.828125 -33.367188 25.074219 -39.847656 16.832031 -39.847656 Z M 20.121094 -14.574219 C 20.121094 -12.90625 18.597656 -11.433594 16.832031 -11.433594 C 15.015625 -11.433594 13.59375 -12.90625 13.59375 -14.574219 L 13.59375 -24.386719 C 13.59375 -26.15625 15.015625 -27.628906 16.832031 -27.628906 C 18.597656 -27.628906 20.121094 -26.15625 20.121094 -24.386719 Z M 20.121094 -14.574219 "/></g></g></g><path stroke-linecap="butt" transform="matrix(0.256059, 0, 0, 0.256059, 24.359238, 30.008126)" fill="none" stroke-linejoin="miter" d="M 131.272051 -0.321584 L 22.63934 -0.321584 C 15.33207 -0.321584 9.199455 5.627968 9.199455 13.103046 L 9.199455 39.357349 C 9.199455 46.649364 15.33207 52.781979 22.63934 52.781979 L 49.076707 52.781979 C 49.86998 52.781979 50.41917 53.529486 50.41917 54.093931 L 50.41917 139.950538 C 50.41917 147.242552 56.368721 153.375167 64.042117 153.375167 L 90.098102 153.375167 C 97.359607 153.375167 103.476966 147.242552 103.476966 139.950538 L 103.476966 54.093931 C 103.476966 53.529486 104.285495 52.781979 105.033003 52.781979 L 131.272051 52.781979 C 138.579321 52.781979 144.69668 46.649364 144.69668 39.357349 L 144.69668 13.103046 C 144.69668 5.627968 138.579321 -0.321584 131.272051 -0.321584 Z M 216.747276 -2.609873 C 185.306184 -2.609873 154.292239 22.698605 154.292239 54.32276 L 154.292239 97.983316 C 154.292239 130.782126 185.306184 156.273667 216.747276 156.273667 C 248.935876 156.273667 279.217569 130.782126 279.217569 97.983316 L 279.217569 54.32276 C 279.217569 22.698605 248.935876 -2.609873 216.747276 -2.609873 Z M 229.576951 96.061153 C 229.576951 102.60566 223.627399 108.372148 216.747276 108.372148 C 209.638325 108.372148 204.115921 102.60566 204.115921 96.061153 L 204.115921 57.739938 C 204.115921 50.859816 209.638325 45.108582 216.747276 45.108582 C 223.627399 45.108582 229.576951 50.859816 229.576951 57.739938 Z M 354.151409 -0.138521 L 302.588628 -0.138521 C 294.549106 -0.138521 288.782617 6.604305 288.782617 13.66749 L 288.782617 138.455522 C 288.782617 145.32039 294.549106 152.444596 302.588628 152.444596 L 354.151409 152.444596 C 384.234783 152.444596 407.209205 128.112456 407.209205 99.142716 L 407.209205 52.965042 C 407.209205 24.010557 384.234783 -0.138521 354.151409 -0.138521 Z M 360.467087 80.760127 C 360.467087 88.814904 354.517535 94.383074 346.661076 94.383074 L 337.492664 94.383074 C 336.134946 94.383074 334.777228 93.391482 334.777228 91.103193 L 334.777228 61.202882 C 334.777228 58.73153 336.134946 57.556875 337.492664 57.556875 L 346.661076 57.556875 C 354.517535 57.556875 360.467087 63.308108 360.467087 71.545949 Z M 477.749531 -2.609873 C 446.308439 -2.609873 415.279238 22.698605 415.279238 54.32276 L 415.279238 97.983316 C 415.279238 130.782126 446.308439 156.273667 477.749531 156.273667 C 509.938131 156.273667 540.204568 130.782126 540.204568 97.983316 L 540.204568 54.32276 C 540.204568 22.698605 509.938131 -2.609873 477.749531 -2.609873 Z M 490.56395 96.061153 C 490.56395 102.60566 484.629653 108.372148 477.749531 108.372148 C 470.640579 108.372148 465.118175 102.60566 465.118175 96.061153 L 465.118175 57.739938 C 465.118175 50.859816 470.640579 45.108582 477.749531 45.108582 C 484.629653 45.108582 490.56395 50.859816 490.56395 57.739938 Z M 490.56395 96.061153 " stroke="#597ec6" stroke-width="3.114264" stroke-opacity="1" stroke-miterlimit="4"/></svg>